<?xml version="1.0"?>
<svg width="200" height="199" xmlns="http://www.w3.org/2000/svg" xmlns:svg="http://www.w3.org/2000/svg">
 <!-- Created with SVG-edit - https://github.com/SVG-Edit/svgedit-->
 <title>logo</title>

 <g class="layer">
  <title>Layer 1</title>
  <rect fill="#a8a8af" height="198.000014" id="svg_49" opacity="0.81" stroke="#332f2f" stroke-linecap="square" stroke-linejoin="bevel" width="199.99998" x="0" y="0.157492"/>
  <path d="m1.767499,99.500006l98.500006,-98.500006l98.500006,98.500006l-98.500006,98.500006l-98.500006,-98.500006z" fill="#0000ff" id="svg_42" opacity="0.16" stroke="#0000ff" stroke-linecap="square" stroke-linejoin="bevel" stroke-width="2"/>
  <path d="m150.774432,93.403599c0,0.728971 -1.426206,1.319565 -3.18659,1.319565l-20.406058,0c-1.760374,0 -3.186585,-0.590592 -3.186585,-1.319565l0,-17.95264c0,-0.728915 1.426206,-1.319565 3.186585,-1.319565l20.406058,0c1.760383,0 3.18659,0.59065 3.18659,1.319565l0,17.95264zm-75.548865,0c0,0.728971 -1.426487,1.319565 -3.18659,1.319565l-20.406334,0c-1.760103,0 -3.186585,-0.590592 -3.186585,-1.319565l0,-17.95264c0,-0.728915 1.426482,-1.319565 3.186585,-1.319565l20.406334,0c1.760103,0 3.18659,0.59065 3.18659,1.319565l0,17.95264zm24.653282,-48.680432c-36.925791,0 -66.900974,12.300473 -67.36132,27.544785l11.6904,0c0.379075,-12.599591 25.154396,-22.765566 55.67092,-22.765566c30.516519,0 55.291854,10.165974 55.666497,22.765566l11.690128,0c-0.455656,-15.244312 -30.439657,-27.544785 -67.35663,-27.544785l0.000005,0zm-67.26655,41.508721l11.478271,0l0,-13.991999l-11.478271,0l0,13.991999zm122.838291,-13.993883l0,13.992059l11.902243,0l0,-13.992059l-11.902243,0z" fill="#332f2f" id="svg_31" opacity="0.81" stroke="#332f2f" stroke-dasharray="null" stroke-linecap="square" stroke-linejoin="bevel"/>
  <text fill="#332f2f" font-family="Fantasy" font-size="24" id="svg_37" opacity="0.81" stroke="#332f2f" stroke-dasharray="null" stroke-linecap="square" stroke-linejoin="bevel" stroke-width="0" text-anchor="middle" transform="matrix(1.17625 0 0 1.19189 -53.3563 -43.254)" x="131.296752" xml:space="preserve" y="142.828239">JMB</text>
  <path d="m85.548216,160.432897c3.621028,0 7.025595,1.565011 9.583137,4.404109c2.563425,2.840397 3.972779,6.624995 3.972779,10.652463l5.582124,0c0,-11.699267 -8.586707,-21.215311 -19.139217,-21.215311l0,6.158739l0.001176,0zm0.007059,-10.920008c12.908883,0 23.408454,11.656407 23.408454,25.983074l5.579772,0c0,-17.722934 -13.004174,-32.143112 -28.989402,-32.143112l0,6.160038l0.001176,0zm7.717331,21.677671c0,2.357257 -1.730517,4.269037 -3.864548,4.269037s-3.864548,-1.911781 -3.864548,-4.269037c0,-2.354659 1.730517,-4.26644 3.864548,-4.26644s3.864548,1.910482 3.864548,4.26644z" fill="#332f2f" id="svg_47" opacity="0.81" stroke="#332f2f" stroke-dasharray="null" stroke-linecap="square" stroke-linejoin="bevel" stroke-width="0"/>
 </g>
</svg>